<svg width="25" height="25" viewBox="0 0 25 25" fill="none" xmlns="http://www.w3.org/2000/svg">
<rect width="25" height="25" rx="5" fill="#F1F5FA"/>
<g clip-path="url(#clip0_2_747)">
<path d="M7.36102 12.464C6.7685 11.4308 6.48241 10.5872 6.3099 9.73201C6.05476 8.46724 6.63863 7.23175 7.60586 6.44342C8.01465 6.11024 8.48327 6.22407 8.725 6.65775L9.27074 7.63682C9.70331 8.41285 9.91959 8.80087 9.87669 9.21224C9.83379 9.62362 9.54211 9.95866 8.95873 10.6288L7.36102 12.464ZM7.36102 12.464C8.56032 14.5552 10.4424 16.4383 12.536 17.639M12.536 17.639C13.5692 18.2315 14.4128 18.5176 15.268 18.6901C16.5328 18.9452 17.7682 18.3614 18.5566 17.3941C18.8898 16.9853 18.7759 16.5167 18.3423 16.275L17.3632 15.7293C16.5871 15.2967 16.1991 15.0804 15.7878 15.1233C15.3764 15.1662 15.0413 15.4579 14.3712 16.0413L12.536 17.639Z" stroke="#323232" stroke-linejoin="round"/>
<path d="M13.75 9.26991C14.6395 9.64765 15.3524 10.3605 15.7301 11.25M14.1588 6.25C16.3695 6.88797 18.1119 8.63033 18.75 10.841" stroke="#E52330" stroke-linecap="round"/>
</g>
<defs>
<clipPath id="clip0_2_747">
<rect width="15" height="15" fill="white" transform="translate(5 5)"/>
</clipPath>
</defs>
</svg>
