<svg width="25" height="25" viewBox="0 0 25 25" fill="none" xmlns="http://www.w3.org/2000/svg">
<rect width="25" height="25" rx="5" fill="#F1F5FA"/>
<path d="M6.25 8.125L10.5706 10.5779C12.1492 11.474 12.8508 11.474 14.4294 10.5779L18.75 8.125" stroke="#323232" stroke-linejoin="round"/>
<path d="M11.5625 17.1875C11.2711 17.1837 10.9793 17.1781 10.6868 17.1708C8.71896 17.1213 7.73505 17.0966 7.0281 16.3865C6.32114 15.6765 6.30071 14.7179 6.25985 12.8009C6.24672 12.1844 6.24672 11.5717 6.25985 10.9553C6.30071 9.0382 6.32114 8.07967 7.0281 7.36962C7.73505 6.65956 8.71896 6.63483 10.6868 6.58536C11.8996 6.55488 13.1004 6.55488 14.3132 6.58537C16.281 6.63484 17.265 6.65958 17.9719 7.36963C18.6789 8.07968 18.6993 9.03821 18.7401 10.9553C18.7462 11.2391 18.7495 11.3728 18.7499 11.5625" stroke="#323232" stroke-linecap="round" stroke-linejoin="round"/>
<path d="M16.875 15.625C16.875 16.1428 16.4553 16.5625 15.9375 16.5625C15.4197 16.5625 15 16.1428 15 15.625C15 15.1072 15.4197 14.6875 15.9375 14.6875C16.4553 14.6875 16.875 15.1072 16.875 15.625ZM16.875 15.625V15.9375C16.875 16.4553 17.2947 16.875 17.8125 16.875C18.3303 16.875 18.75 16.4553 18.75 15.9375V15.625C18.75 14.0717 17.4908 12.8125 15.9375 12.8125C14.3842 12.8125 13.125 14.0717 13.125 15.625C13.125 17.1783 14.3842 18.4375 15.9375 18.4375" stroke="#E52330" stroke-linecap="round" stroke-linejoin="round"/>
</svg>
